# xmcd CD database file
#
# Track frame offsets:
#	150
#	20970
#	43387
#	65372
#	84082
#	101087
#	121130
#	141007
#	160290
#	180132
#	196885
#
# Disc length: 2913 seconds
#
# Revision: 1
# Processed by: cddbd v1.5.1PL0 Copyright (c) Steve Scherf et al.
# Submitted via: CDex 1.51
#
DISCID=8d0b5f0b
DTITLE=Jazz Jamaica - Double Barrel
DYEAR=1998
DGENRE=Ska
TTITLE0=Double Barrel
TTITLE1=Confucious
TTITLE2=Monk Ey Man
TTITLE3=Theme From Exodus
TTITLE4=Shank kai Chek
TTITLE5=Butterfly
TTITLE6=Marcus Junior
TTITLE7=Dewey Square
TTITLE8=Walk On By
TTITLE9=Night Dreamer
TTITLE10=I Heard It Through The Grapevine
EXTD=YEAR: 1998
EXTT0=
EXTT1=
EXTT2=
EXTT3=
EXTT4=
EXTT5=
EXTT6=
EXTT7=
EXTT8=
EXTT9=
EXTT10=
PLAYORDER=
